PathFileType	4	(X/Y/Z)	D:\Research_projects\MuscleProsody\BulkSports2Dtrack\RetrackedSports2D\p1_sample60_cam3\p1_sample60_cam3_Sports2D\p1_sample60_cam3_Sports2D_m_person00.trc
DataRate	CameraRate	NumFrames	NumMarkers	Units	OrigDataRate	OrigDataStartFrame	OrigNumFrames
60	60	7	22	m	60	585	780
Frame#	Time	Hip			RHip			RKnee			RAnkle			RBigToe			RSmallToe			RHeel			LHip			LKnee			LAnkle			LBigToe			LSmallToe			LHeel			Neck			Head			Nose			RShoulder			RElbow			RWrist			LShoulder			LElbow			LWrist		
		X1	Y1	Z1	X2	Y2	Z2	X3	Y3	Z3	X4	Y4	Z4	X5	Y5	Z5	X6	Y6	Z6	X7	Y7	Z7	X8	Y8	Z8	X9	Y9	Z9	X10	Y10	Z10	X11	Y11	Z11	X12	Y12	Z12	X13	Y13	Z13	X14	Y14	Z14	X15	Y15	Z15	X16	Y16	Z16	X17	Y17	Z17	X18	Y18	Z18	X19	Y19	Z19	X20	Y20	Z20	X21	Y21	Z21	X22	Y22	Z22
585	9.75	0.5165195842072842	0.8071823392854106	0.0301	0.4457435153595423	0.7600995665341874	0.0301	0.6121240416145263	0.41753971677941126	0.129	0.7911922530002474	0.15164409335579918	0.023	0.7245371241717278	-0.004905091567127679	0.2179	0.7020311801824872	0.018484969551875226	0.1804	0.8496336353759234	0.12063358427185283	-0.0119	0.6077698677086245	0.8177924264555894	0.0301	0.7639808760691552	0.46042822130329836	0.129	0.9369152430062275	0.14425567897373123	0.023	0.8721732481336812	-0.013925892642517222	0.2179	0.9425515392582706	0.004712347672652632	0.1804	0.9957588902778222	0.11653685674857243	-0.0119	0.25095917221478076	1.3714390592165357	0.0008	0.04848851814281142	1.5866696937996259	0.0655	0.04362620029187065	1.404356841434254	0.1076	0.18937613946100232	1.233755684862087	-0.01275	0.21530000705652924	0.9768180989334762	0.0702	0.15591757599390074	0.9734176930657715	0.1076	0.44771271758625225	1.3480325713856702	-0.01275	0.49558994071880835	1.0489769033426735	0.0702	0.23844609636296796	0.8637888620226322	0.1076
586	9.766666666666666	0.516184938102933	0.8069095524651616	0.0301	0.4459031861989901	0.7593883369225115	0.0301	0.6119552831270497	0.4173126843999798	0.129	0.7913566462360953	0.1518502014777728	0.023	0.7244129070784113	-0.004604128008272663	0.2179	0.7021871285791016	0.018642828979372517	0.1804	0.8496287649163277	0.12073281940607637	-0.0119	0.6074283295209145	0.816985556471823	0.0301	0.763963012074289	0.4602236475362934	0.129	0.936699516576241	0.14395038988986947	0.023	0.8718412713732268	-0.014328602112444463	0.2179	0.9421158633399778	0.004385808686787972	0.1804	0.9953386719720765	0.11599062183017392	-0.0119	0.2508993196927711	1.3713944994730882	0.0008	0.04841584660074581	1.586235440876082	0.0655	0.04296439097090967	1.4038527792966757	0.1076	0.1897204408460259	1.2340963945798447	-0.01275	0.21719487960743752	0.9770393177067357	0.0702	0.1533640979391977	0.973060652390537	0.1076	0.4474649912074159	1.3478937771044839	-0.01275	0.5015011027210378	1.0510701762212271	0.0702	0.24754849815441976	0.8661570047634104	0.1076
587	9.783333333333333	0.5157321126546667	0.8064335570625338	0.0301	0.4458641363599607	0.7587236644213747	0.0301	0.6117015083842369	0.41726944772915375	0.129	0.7914979564117811	0.1519667232646037	0.023	0.7241761610827038	-0.004474339009595548	0.2179	0.7022317928370566	0.018526353952436982	0.1804	0.8497120743607093	0.12084601432764	-0.0119	0.6069344519668508	0.8162123629980144	0.0301	0.7638729988812899	0.46010896471013385	0.129	0.9364970944296978	0.1436970506489463	0.023	0.8716797283590613	-0.014531075191123363	0.2179	0.9418438875535112	0.004175914483018973	0.1804	0.9948648315743345	0.11558154483403545	-0.0119	0.2506794996320765	1.3713292919800792	0.0008	0.04804576864571857	1.5857966008370386	0.0655	0.04246480882431238	1.4034049370052484	0.1076	0.190046052366985	1.2341050299685021	-0.01275	0.2189749885808157	0.9772385302486741	0.0702	0.1457945140866738	0.9712051369317409	0.1076	0.44712062839575956	1.3479237203219656	-0.01275	0.5099995944867776	1.0546082393889147	0.0702	0.2611984202820176	0.8699421331322338	0.1076
588	9.8	0.5151870359451999	0.8057479353165964	0.0301	0.4456648688185711	0.758081118725141	0.0301	0.611444815506742	0.41740159607444866	0.129	0.7916289815382233	0.15196239048353982	0.023	0.7238225308410852	-0.004500271971212819	0.2179	0.702172553287489	0.01817833623771659	0.1804	0.849899445177796	0.12095851003159748	-0.0119	0.6063049188003762	0.8154378148783865	0.0301	0.7637311645053251	0.46003846517944863	0.129	0.9363185953040187	0.14350816063808522	0.023	0.8716356316123148	-0.014553875956215809	0.2179	0.941694774705842	0.0040588464398213855	0.1804	0.994398218375413	0.11532372482786067	-0.0119	0.25032078453723694	1.3712352503685776	0.0008	0.047425415159928846	1.5853749896068419	0.0655	0.042149417290410454	1.4030316042127053	0.1076	0.19034190416500252	1.2338291986616847	-0.01275	0.22042848131452195	0.97747059043803	0.0702	0.1336726538582945	0.9677801127727571	0.1076	0.4466675131728303	1.3481072395127982	-0.01275	0.5206383405386459	1.0595719531865815	0.0702	0.27940939311444923	0.8754184807327647	0.1076
589	9.816666666666666	0.5145691458301211	0.8048643773480691	0.0301	0.4453465199930426	0.7574433067556436	0.0301	0.611246023660377	0.4176800444526873	0.129	0.7917495884592288	0.15181195390298438	0.023	0.7233733848541214	-0.004645184202681001	0.2179	0.7020387318322069	0.017666063303472413	0.1804	0.850184823369067	0.12105112661922161	-0.0119	0.6055568028975831	0.814644393526215	0.0301	0.7635365407587188	0.45995914706081936	0.129	0.9361937996531595	0.14340377746807703	0.023	0.8716513201377462	-0.014435498078917107	0.2179	0.9416179088162633	0.003990762920425521	0.1804	0.994018340184198	0.11521622289025955	-0.0119	0.24983812869123898	1.3711184638032015	0.0008	0.046604312332459374	1.5850035339929716	0.0655	0.041998211653025606	1.4027571358330624	0.1076	0.1905854735163789	1.2333213808437353	-0.01275	0.2213890201496984	0.9777532341432225	0.0702	0.117773646171523	0.962776812141219	0.1076	0.44610335999023953	1.348447903410893	-0.01275	0.5328820283767047	1.0659177686757504	0.0702	0.30217415506150375	0.8830059142966796	0.1076
590	9.833333333333334	0.5138930236072018	0.8038138998860735	0.0301	0.44495688772456926	0.7567995354973511	0.0301	0.6111310821444464	0.4180580317041735	0.129	0.791850985198839	0.15152304171717199	0.023	0.7228828945981671	-0.004869708646657136	0.2179	0.701873997819354	0.017060709248370984	0.1804	0.8505507907363469	0.12112359888998395	-0.0119	0.6047253341668288	0.8138296145409696	0.0301	0.7632809655761972	0.4598133041849744	0.129	0.9361676890278435	0.143403272045572	0.023	0.8717170973332853	-0.014208040549900824	0.2179	0.9415955734648015	0.003935865852541987	0.1804	0.9938152691299175	0.11526656596745787	-0.0119	0.2492454535404336	1.3709924732845502	0.0008	0.045633970786198005	1.584721092996185	0.0655	0.04196258492783383	1.4026006596417977	0.1076	0.19074551143765353	1.2326162594843566	-0.01275	0.22181147714509789	0.9780406578325553	0.0702	0.09909383288225973	0.9563182540078743	0.1076	0.4454339799861277	1.3489495923905817	-0.01275	0.5461634976910338	1.0735529635378709	0.0702	0.32938915417975434	0.8931545365153933	0.1076
591	9.85	0.5131733576836376	0.8026461442037252	0.0301	0.4445492527048789	0.7561376969873371	0.0301	0.6111137011741552	0.4184719446493688	0.129	0.7919372560015183	0.15113986560773796	0.023	0.7224290367507175	-0.0051265350694469514	0.2179	0.701723482444978	0.016442058580738588	0.1804	0.8509898217855199	0.12119022710553551	-0.0119	0.6038622504303158	0.8129859776568806	0.0301	0.762980893438009	0.45954699890015993	0.129	0.9362653669868384	0.14351888928585443	0.023	0.8718556414328171	-0.013901363727208271	0.2179	0.9416316870516754	0.0038770561625611423	0.1804	0.9938448999060955	0.1154829811346741	-0.0119	0.24855971406638688	1.3708604527895754	0.0008	0.04458209539576697	1.584543318380249	0.0655	0.04196348751790685	1.4025546199667343	0.1076	0.1907902456393257	1.2317369594479908	-0.01275	0.2217668005887995	0.9782778394343848	0.0702	0.07876764836001877	0.9486951939792685	0.1076	0.4446708603836759	1.349599821336141	-0.01275	0.5599122208078554	1.0823150765010112	0.0702	0.36076885297647054	0.9062105002504672	0.1076
